<svg version="1.1" xmlns="http://www.w3.org/2000/svg" viewBox="0 0 573 305" width="1719" height="915" filter="invert(93%) hue-rotate(180deg)">
  <!-- svg-source:excalidraw -->
  
  <defs>
    <style class="style-fonts">
      @font-face {
        font-family: "Virgil";
        src: url("https://excalidraw.com/Virgil.woff2");
      }
      @font-face {
        font-family: "Cascadia";
        src: url("https://excalidraw.com/Cascadia.woff2");
      }
    </style>
  </defs>
  <rect x="0" y="0" width="573" height="305" fill="#ffffff"></rect><g transform="translate(193.4542084174467 12.474465257933048) rotate(0 52.548570136932995 140.94844199046855)"><text x="52.54857013693299" y="0" font-family="Virgil, Segoe UI Emoji" font-size="225.51750718474977px" fill="#087f5b" text-anchor="middle" style="white-space: pre;" direction="ltr" dominant-baseline="text-before-edge">?</text></g><g transform="translate(10 89.1052631578948) rotate(0 34.733333587646484 17.5)"><text x="0" y="0" font-family="Virgil, Segoe UI Emoji" font-size="28px" fill="#000000" text-anchor="start" style="white-space: pre;" direction="ltr" dominant-baseline="text-before-edge">Simon</text></g><g stroke-linecap="round" transform="translate(384 10) rotate(0 89.5 142.5)"><path d="M32 0 M32 0 C72.53 0.78, 118.07 -1.47, 147 0 M32 0 C76.69 0.03, 121.12 -0.41, 147 0 M147 0 C169.5 1.15, 179.09 11.13, 179 32 M147 0 C166.23 2.02, 179.17 10.12, 179 32 M179 32 C176 87.47, 177.64 141, 179 253 M179 32 C180.46 117.3, 179.98 203.72, 179 253 M179 253 C178.43 275.32, 167.71 286.29, 147 285 M179 253 C180.84 272.33, 167.69 283.4, 147 285 M147 285 C122.38 283.73, 98.36 286.39, 32 285 M147 285 C111.94 284.32, 79 284.91, 32 285 M32 285 C12.5 283.4, 0.7 275.21, 0 253 M32 285 C10.15 285.41, 0.37 272.98, 0 253 M0 253 C-2.66 199.64, -0.23 149.78, 0 32 M0 253 C-0.27 188.14, -1.15 122.94, 0 32 M0 32 C-0.82 9.32, 8.95 1.11, 32 0 M0 32 C-1.1 8.67, 12.86 0.48, 32 0" stroke="#5f3dc4" stroke-width="1" fill="none"></path></g><g stroke-linecap="round" transform="translate(401 43) rotate(0 71 16.5)"><path d="M8.25 0 M8.25 0 C50.94 -1.82, 93.24 1.26, 133.75 0 M8.25 0 C39.87 -0.32, 72.71 1.19, 133.75 0 M133.75 0 C139.34 0.46, 140.17 4.5, 142 8.25 M133.75 0 C139.42 -0.54, 140.73 1.21, 142 8.25 M142 8.25 C141.76 12.99, 143.32 16.81, 142 24.75 M142 8.25 C142.53 14.08, 141.93 21.43, 142 24.75 M142 24.75 C141.38 31.54, 140.85 31.26, 133.75 33 M142 24.75 C141.36 28.65, 137.22 33.71, 133.75 33 M133.75 33 C91.85 32.95, 49.85 32.14, 8.25 33 M133.75 33 C98.44 32.4, 62.69 31.53, 8.25 33 M8.25 33 C3.45 33.87, -0.45 30.6, 0 24.75 M8.25 33 C3.12 31.65, -1.47 31.44, 0 24.75 M0 24.75 C0.89 21.22, 0.08 16.2, 0 8.25 M0 24.75 C-0.35 21.38, -0.46 16.68, 0 8.25 M0 8.25 C-1.72 3.86, 1.8 -1.74, 8.25 0 M0 8.25 C2.19 3.23, 3.76 2.13, 8.25 0" stroke="#c92a2a" stroke-width="1" fill="none"></path></g><g stroke-linecap="round" transform="translate(403 99.5) rotate(0 71 16.5)"><path d="M8.25 0 M8.25 0 C54.82 2.67, 96.92 0.65, 133.75 0 M8.25 0 C40.33 1.74, 71.28 1.4, 133.75 0 M133.75 0 C137.42 1.75, 142.15 2.28, 142 8.25 M133.75 0 C137.98 -1.54, 140.71 0.46, 142 8.25 M142 8.25 C143.47 15, 143.43 22.36, 142 24.75 M142 8.25 C141.84 11.96, 141.82 15.4, 142 24.75 M142 24.75 C143.6 28.51, 138.69 31.61, 133.75 33 M142 24.75 C139.97 30.96, 140.04 32.68, 133.75 33 M133.75 33 C106.52 33.81, 79.08 32.19, 8.25 33 M133.75 33 C103.69 32.28, 72.15 33.52, 8.25 33 M8.25 33 C2.3 33.35, 0.32 29.08, 0 24.75 M8.25 33 C1.28 34.19, -0.4 28.03, 0 24.75 M0 24.75 C-0.15 21.68, -1.26 18.27, 0 8.25 M0 24.75 C-0.29 18.54, -0.66 13.9, 0 8.25 M0 8.25 C-0.95 1.01, 4.65 0.41, 8.25 0 M0 8.25 C1.01 4.88, 3.91 -1.87, 8.25 0" stroke="#c92a2a" stroke-width="1" fill="none"></path></g><g stroke-linecap="round" transform="translate(405 146.5) rotate(0 71 16.5)"><path d="M8.25 0 M8.25 0 C38.07 -1.29, 68.73 -1.87, 133.75 0 M8.25 0 C34.24 -0.49, 59.22 0.16, 133.75 0 M133.75 0 C139.4 -0.47, 140.9 1.41, 142 8.25 M133.75 0 C137.96 -2.29, 143.79 2.64, 142 8.25 M142 8.25 C143.59 15.56, 140.51 20.31, 142 24.75 M142 8.25 C141.7 12.61, 142.61 15.19, 142 24.75 M142 24.75 C141.44 28.86, 137.48 33.62, 133.75 33 M142 24.75 C142.79 29.93, 137.33 33.04, 133.75 33 M133.75 33 C89.57 31.68, 44.86 34.48, 8.25 33 M133.75 33 C95.62 32.43, 56.57 32.17, 8.25 33 M8.25 33 C3.07 31.83, -1.28 31.29, 0 24.75 M8.25 33 C2.35 30.78, -1.54 31.27, 0 24.75 M0 24.75 C-1.18 19.87, 0.71 12.11, 0 8.25 M0 24.75 C-0.64 19.49, -0.33 12.59, 0 8.25 M0 8.25 C1.9 3.16, 3.63 1.85, 8.25 0 M0 8.25 C1.16 0.88, 4.8 -1.35, 8.25 0" stroke="#490a0a" stroke-width="1" fill="none"></path></g><g transform="translate(460 36) rotate(0 11.5 17.5)"><text x="0" y="0" font-family="Virgil, Segoe UI Emoji" font-size="28px" fill="#c92a2a" text-anchor="start" style="white-space: pre;" direction="ltr" dominant-baseline="text-before-edge">...</text></g><g transform="translate(458.5 90.5) rotate(0 11.5 17.5)"><text x="0" y="0" font-family="Virgil, Segoe UI Emoji" font-size="28px" fill="#c92a2a" text-anchor="start" style="white-space: pre;" direction="ltr" dominant-baseline="text-before-edge">...</text></g><g stroke-linecap="round"><g transform="translate(93 94) rotate(0 149.91284275837245 -18.02481723368163)"><path d="M0.7 0.69 C24.77 -3.91, 94.52 -22.78, 144.05 -28.72 C193.59 -34.66, 272.06 -33.69, 297.9 -34.95 M-0.39 0 C23.56 -4.88, 93.03 -24.58, 143.13 -30.7 C193.23 -36.82, 274.18 -35.97, 300.22 -36.74" stroke="#000000" stroke-width="1" fill="none"></path></g><g transform="translate(93 94) rotate(0 149.91284275837245 -18.02481723368163)"><path d="M273.32 -26.01 C280.27 -30.95, 289.1 -31.83, 299.75 -37.84 M272.95 -26.14 C279.2 -27.4, 285.63 -29.91, 301.22 -37.73" stroke="#000000" stroke-width="1" fill="none"></path></g><g transform="translate(93 94) rotate(0 149.91284275837245 -18.02481723368163)"><path d="M273.04 -46.53 C279.87 -45.96, 288.78 -41.32, 299.75 -37.84 M272.67 -46.66 C278.88 -43.13, 285.36 -40.85, 301.22 -37.73" stroke="#000000" stroke-width="1" fill="none"></path></g></g><mask></mask><g transform="translate(12 228) rotate(0 31.149999618530273 17.5)"><text x="0" y="0" font-family="Virgil, Segoe UI Emoji" font-size="28px" fill="#000000" text-anchor="start" style="white-space: pre;" direction="ltr" dominant-baseline="text-before-edge">Josh</text></g><g stroke-linecap="round"><g transform="translate(88 247) rotate(0 143.1204683046788 -86.06259787118779)"><path d="M-1.1 1.05 C27.24 -7.37, 122.02 -21.25, 170.09 -50.28 C218.16 -79.32, 267.8 -152.63, 287.34 -173.18 M0.53 0.56 C28.71 -7.71, 121.57 -20.09, 169.19 -48.9 C216.8 -77.7, 266.55 -151.58, 286.23 -172.28" stroke="#000000" stroke-width="1" fill="none"></path></g><g transform="translate(88 247) rotate(0 143.1204683046788 -86.06259787118779)"><path d="M277.99 -143.84 C278.74 -153.61, 280.92 -162.24, 284.23 -170.73 M276.55 -143.12 C280.07 -153.43, 282.46 -161.48, 285.94 -171.79" stroke="#000000" stroke-width="1" fill="none"></path></g><g transform="translate(88 247) rotate(0 143.1204683046788 -86.06259787118779)"><path d="M262.15 -156.88 C267.75 -162.54, 274.74 -167.2, 284.23 -170.73 M260.71 -156.16 C268.96 -162.76, 276.03 -166.95, 285.94 -171.79" stroke="#000000" stroke-width="1" fill="none"></path></g></g><mask></mask><g transform="translate(463 22.168695425900523) rotate(0 37.46666717529297 9.600000000000023)"><text x="0" y="0" font-family="Cascadia, Segoe UI Emoji" font-size="16px" fill="#c92a2a" text-anchor="start" style="white-space: pre;" direction="ltr" dominant-baseline="text-before-edge">0x721D98</text></g><g transform="translate(464.53333282470703 81.39999999999986) rotate(0 37.46666717529297 9.600000000000023)"><text x="0" y="0" font-family="Cascadia, Segoe UI Emoji" font-size="16px" fill="#c92a2a" text-anchor="start" style="white-space: pre;" direction="ltr" dominant-baseline="text-before-edge">0x721D99</text></g><g transform="translate(485.8999996185303 273) rotate(0 28.100000381469727 9.600000000000023)"><text x="28.100000381469727" y="0" font-family="Cascadia, Segoe UI Emoji" font-size="16px" fill="#c92a2a" text-anchor="middle" style="white-space: pre;" direction="ltr" dominant-baseline="text-before-edge">Memory</text></g></svg>